<?xml version="1.0" encoding="UTF-8" standalone="no"?><svg xmlns="http://www.w3.org/2000/svg" xmlns:xlink="http://www.w3.org/1999/xlink" clip-rule="evenodd" stroke-miterlimit="10" viewBox="0 0 1920 1080"><desc>SVG generated by Keynote</desc><defs></defs><g transform="matrix(1.00, 0.00, -0.00, -1.00, 0.0, 1080.0)"><path d="M 0.0 1080.0 L 1920.0 1080.0 L 1920.0 0.0 L 0.0 0.0 Z M 0.0 1080.0 " fill="#FEFFFF"></path><image xlink:href="../../350047F8-41B4-4ED4-B2F2-AF340A294AAA/assets/1E28F717C1290D213E09CEBE62393287.png" width="960.00" height="2123.00" transform="matrix(0.28, 0.00, -0.00, -0.28, 372.0, 1966.0)"></image><image xlink:href="../../350047F8-41B4-4ED4-B2F2-AF340A294AAA/assets/C82DC846ABBACE93AF739B971A50BA83.png" width="960.00" height="209.00" transform="matrix(0.28, 0.00, -0.00, -0.28, 372.0, 923.0)"></image><image xlink:href="../../350047F8-41B4-4ED4-B2F2-AF340A294AAA/assets/C82DC846ABBACE93AF739B971A50BA83.png" width="960.00" height="209.00" transform="matrix(0.28, 0.00, -0.00, -0.28, 372.0, 1177.0)"></image><image xlink:href="../../350047F8-41B4-4ED4-B2F2-AF340A294AAA/assets/4BCC31482511D52E3A0E78146669C7EF.png" width="960.00" height="120.00" transform="matrix(0.28, 0.00, -0.00, -0.28, 373.0, 1210.0)"></image><image xlink:href="../../350047F8-41B4-4ED4-B2F2-AF340A294AAA/assets/492DCF7672CA46160F59FFA8EC4397FD.png" width="960.00" height="191.00" transform="matrix(0.28, 0.00, -0.00, -0.28, 371.0, 913.0)"></image><image xlink:href="../../27B00C64-DD49-4249-90EC-063AC024A21E/assets/7036DBF1DA48C7F57E8CE771F0C39B59.png" width="960.00" height="4007.00" transform="matrix(0.28, 0.00, -0.00, -0.28, 371.2, 1337.0)"></image><image xlink:href="../../350047F8-41B4-4ED4-B2F2-AF340A294AAA/assets/D1D9D9820298E97D9A81D4249BC9A6B0.png" width="960.00" height="210.00" transform="matrix(0.28, 0.00, -0.00, -0.28, 370.0, 852.0)"></image><path d="M 342.0 1085.0 L 703.0 1085.0 L 703.0 854.0 L 342.0 854.0 Z M 342.1 1084.8 " fill="#FEFFFF"></path><path d="M 8.0 1085.0 L 369.0 1085.0 L 369.0 212.0 L 8.0 212.0 Z M 8.1 1084.8 " fill="#FEFFFF"></path><path d="M 644.0 1075.0 L 1005.0 1075.0 L 1005.0 202.0 L 644.0 202.0 Z M 644.1 1074.8 " fill="#FEFFFF"></path><path d="M 325.0 379.0 L 1868.0 379.0 L 1868.0 -1.0 L 325.0 -1.0 Z M 325.0 379.1 " fill="#FEFFFF"></path><image xlink:href="../../350047F8-41B4-4ED4-B2F2-AF340A294AAA/assets/768AF5B593CFBDE3F330F8A583637D1A.png" width="1800.00" height="2200.00" transform="matrix(0.35, 0.00, -0.00, -0.35, 191.0, 1006.0)"></image></g></svg>